<svg viewBox="0 0 576 448" fill="none" xmlns="http://www.w3.org/2000/svg">
<path d="M487.941 280.35V423.65C487.941 436.95 477.241 447.65 463.941 447.65H347.941C341.341 447.65 335.941 442.25 335.941 435.65V323.65C335.941 317.05 330.541 311.65 323.941 311.65H251.941C245.341 311.65 239.941 317.05 239.941 323.65V435.65C239.941 442.25 234.541 447.65 227.941 447.65H111.941C98.6407 447.65 87.9407 436.95 87.9407 423.65V280.35C87.9407 276.75 89.5407 273.35 92.3407 271.05L280.341 116.25C284.741 112.65 291.141 112.65 295.641 116.25L483.641 271.05C486.341 273.35 487.941 276.75 487.941 280.35ZM571.541 219.45L487.941 150.55V12.05C487.941 5.45 482.541 0.0500015 475.941 0.0500015H419.941C413.341 0.0500015 407.941 5.45 407.941 12.05V84.65L318.441 10.95C300.741 -3.65 275.141 -3.65 257.441 10.95L4.34071 219.45C-0.759291 223.65 -1.45929 231.25 2.74071 236.35L28.2407 267.35C32.4407 272.45 40.0407 273.15 45.1407 268.95L280.341 75.25C284.741 71.65 291.141 71.65 295.641 75.25L530.841 268.95C535.941 273.15 543.541 272.45 547.741 267.35L573.241 236.35C577.441 231.15 576.641 223.65 571.541 219.45Z" fill="white"/>
</svg>
