<svg width="576" height="368" viewBox="0 0 576 368" fill="none" xmlns="http://www.w3.org/2000/svg">
<path d="M569.354 159.631C512.969 63.949 407.81 0 288 0C168.14 0 63.0045 63.994 6.64647 159.631C2.29496 167.015 0 175.43 0 184C0 192.571 2.29496 200.986 6.64647 208.37C63.0315 304.051 168.19 368 288 368C407.86 368 512.996 304.006 569.354 208.369C573.706 200.985 576.001 192.571 576.001 184C576.001 175.429 573.706 167.015 569.354 159.631ZM288 320C212.838 320 152 259.173 152 184C152 108.838 212.826 48 288 48C363.162 48 424 108.826 424 184C424 259.162 363.174 320 288 320ZM392 184C392 241.438 345.438 288 288 288C230.562 288 184 241.438 184 184C184 166.292 188.431 149.621 196.236 135.027L196.235 135.059C196.235 158.71 215.408 177.882 239.059 177.882C262.71 177.882 281.883 158.709 281.883 135.059C281.883 111.408 262.71 92.235 239.059 92.235L239.027 92.236C253.621 84.431 270.292 80 288 80C345.438 80 392 126.562 392 184Z" fill="black"/>
</svg>
