<svg viewBox="0 0 576 512" fill="none" xmlns="http://www.w3.org/2000/svg">
<path d="M402.6 83.1L492.8 173.3C496.6 177.1 496.6 183.3 492.8 187.1L274.4 405.5L181.6 415.8C169.2 417.2 158.7 406.7 160.1 394.3L170.4 301.5L388.8 83.1C392.6 79.3 398.8 79.3 402.6 83.1ZM564.6 60.2L515.8 11.4C500.6 -3.8 475.9 -3.8 460.6 11.4L425.2 46.8C421.4 50.6 421.4 56.8 425.2 60.6L515.4 150.8C519.2 154.6 525.4 154.6 529.2 150.8L564.6 115.4C579.8 100.1 579.8 75.4 564.6 60.2ZM384 346.1V447.9H64V127.9H293.8C297 127.9 300 126.6 302.3 124.4L342.3 84.4C349.9 76.8 344.5 63.9 333.8 63.9H48C21.5 63.9 0 85.4 0 111.9V463.9C0 490.4 21.5 511.9 48 511.9H400C426.5 511.9 448 490.4 448 463.9V306.1C448 295.4 435.1 290.1 427.5 297.6L387.5 337.6C385.3 339.9 384 342.9 384 346.1Z" fill="#fff"/>
</svg>
