<svg viewBox="0 0 33 33" fill="none" xmlns="http://www.w3.org/2000/svg">
  <path d="M32.5512 28.5306L26.1248 22.1053C25.8347 21.8153 25.4415 21.6541 25.029 21.6541H23.9783C25.7574 19.3792 26.8145 16.5177 26.8145 13.4049C26.8145 6 20.8134 0 13.4072 0C6.00102 0 0 6 0 13.4049C0 20.8099 6.00102 26.8099 13.4072 26.8099C16.5205 26.8099 19.3825 25.753 21.6578 23.9742V25.0247C21.6578 25.4372 21.819 25.8303 22.109 26.1203L28.5355 32.5456C29.1414 33.1514 30.1211 33.1514 30.7206 32.5456L32.5448 30.7218C33.1507 30.116 33.1507 29.1364 32.5512 28.5306ZM13.4072 21.6541C8.85006 21.6541 5.15663 17.9678 5.15663 13.4049C5.15663 8.84855 8.84362 5.15575 13.4072 5.15575C17.9644 5.15575 21.6578 8.8421 21.6578 13.4049C21.6578 17.9613 17.9708 21.6541 13.4072 21.6541Z" fill="#fff"/>
</svg>
